<svg width="30" height="30" viewBox="0 0 30 30" fill="none" xmlns="http://www.w3.org/2000/svg">
<rect width="30" height="30" rx="15" fill="#E1D4C9"/>
<path d="M20.166 14.7667V16.6667C20.166 19.8883 17.5543 22.5 14.3327 22.5C11.111 22.5 8.49935 19.8883 8.49935 16.6667V14.7667C8.49935 14.4353 8.76798 14.1667 9.09935 14.1667H19.566C19.8974 14.1667 20.166 14.4353 20.166 14.7667Z" stroke="#403F3D" stroke-width="1.5" stroke-linecap="round" stroke-linejoin="round"/>
<path d="M15.9993 12.5C15.9993 11.6666 16.5946 10.8333 17.7851 10.8333V10.8333C19.1 10.8333 20.166 9.7673 20.166 8.45234V7.91663" stroke="#403F3D" stroke-width="1.5" stroke-linecap="round" stroke-linejoin="round"/>
<path d="M12.6673 12.5V12.0833C12.6673 10.7026 13.7866 9.58333 15.1673 9.58333V9.58333C16.0878 9.58333 16.834 8.83714 16.834 7.91667V7.5" stroke="#403F3D" stroke-width="1.5" stroke-linecap="round" stroke-linejoin="round"/>
<path d="M19.334 14.1666H21.4173C22.5679 14.1666 23.5007 15.0994 23.5007 16.25C23.5007 17.4006 22.5679 18.3333 21.4173 18.3333H20.1673" stroke="#403F3D" stroke-width="1.5" stroke-linecap="round" stroke-linejoin="round"/>
</svg>
